<?xml version="1.0" encoding="utf-8"?>
<!-- Generator: Adobe Illustrator 23.0.6, SVG Export Plug-In . SVG Version: 6.00 Build 0)  -->
<svg version="1.1" id="Layer_1" xmlns="http://www.w3.org/2000/svg" xmlns:xlink="http://www.w3.org/1999/xlink" x="0px" y="0px"
	 viewBox="0 0 1325 981" style="enable-background:new 0 0 1325 981;" xml:space="preserve">
<style type="text/css">
	.st0{fill-rule:evenodd;clip-rule:evenodd;fill:#33742C;}
	.st1{fill-rule:evenodd;clip-rule:evenodd;fill:#597D55;}
</style>
<title>Asia + europe</title>
<desc>Created with Sketch.</desc>
<g id="Page-2">
	<g id="Artboard" transform="translate(-1421.000000, -469.000000)">
		<g transform="translate(1421.975170, 469.889941)">
			<polygon id="Fill-3" class="st0" points="997.6,124 976.9,0 480.2,272.9 273.2,198.3 153.2,487.9 45.5,607.8 45.5,653.3 0,653.3 
				0,719.4 161.4,640.9 240.1,707 389.1,657.4 463.4,723.4 503.2,803.1 564.6,847.2 749.3,979.9 770,806.2 931.4,979.9 976.9,951 
				968.7,895.8 1059.7,822.8 1043.2,748.4 1101.1,673.9 1229.5,558.2 1233.6,454.8 1323.9,157.1 			"/>
			<polygon id="Path-11" class="st1" points="1157.6,729.8 1112.4,841.1 1178,819.1 1216.4,710.1 1164.4,710.1 			"/>
		</g>
	</g>
</g>
</svg>
