<?xml version="1.0" encoding="utf-8"?>
<!-- Generator: Adobe Illustrator 23.0.6, SVG Export Plug-In . SVG Version: 6.00 Build 0)  -->
<svg version="1.1" id="Layer_1" xmlns="http://www.w3.org/2000/svg" xmlns:xlink="http://www.w3.org/1999/xlink" x="0px" y="0px"
	 viewBox="0 0 955 867" style="enable-background:new 0 0 955 867;" xml:space="preserve">
<style type="text/css">
	.st0{fill-rule:evenodd;clip-rule:evenodd;fill:#E6AA3D;}
	.st1{fill-rule:evenodd;clip-rule:evenodd;fill:#F7C15C;}
</style>
<title>north America</title>
<desc>Created with Sketch.</desc>
<g id="Page-2">
	<g id="Artboard" transform="translate(-184.000000, -590.000000)">
		<g id="north-America" transform="translate(184.000000, 590.639328)">
			<polygon id="Fill-2" class="st0" points="767.9,839.7 719.4,847.6 689.7,797.5 655.2,791.2 663.1,747.4 611.4,775.3 570.7,734.9 
				591.1,664.5 685,659.8 716.3,705.1 727.2,689.5 714.7,645.7 753.8,608.1 811.7,522 843,500.1 891.5,486 828.9,457.9 922.8,418.7 
				907.2,464.1 954.1,473.5 954.1,412.5 861.8,298.2 744.4,248.2 728.8,425 608.3,321.7 611.4,249.7 658.4,204.3 719.4,223.1 
				705.3,91.7 551.8,124.5 406.4,144.9 259.3,96.4 67.6,77 0,133.3 0,227.2 33.8,336.1 180.2,268.5 277.8,336.1 349.1,452.4 
				349.1,568.8 469.2,696.4 469.2,752.7 649.4,820.3 713.2,865.4 754.5,865.4 			"/>
			<polygon id="Path-12" class="st1" points="392.7,60 459.4,94.8 551.8,39.6 534.6,12.3 			"/>
			<polygon id="Path-13" class="st1" points="255.4,53.6 307.8,62.7 349.2,0 307.8,12.3 			"/>
		</g>
	</g>
</g>
</svg>
