<?xml version="1.0" encoding="utf-8"?>
<!-- Generator: Adobe Illustrator 23.0.6, SVG Export Plug-In . SVG Version: 6.00 Build 0)  -->
<svg version="1.1" id="Layer_1" xmlns="http://www.w3.org/2000/svg" xmlns:xlink="http://www.w3.org/1999/xlink" x="0px" y="0px"
	 viewBox="0 0 44.3 40" style="enable-background:new 0 0 44.3 40;" xml:space="preserve">
<style type="text/css">
	.st0{fill:#FFFFFF;}
	.st1{fill-rule:evenodd;clip-rule:evenodd;fill:#BDBDBD;}
	.st2{fill:#040B1E;}
</style>
<path id="white" class="st0" d="M9,14l7.5-0.5l1.6,1.6l2.6,8.7l6.6,2.8h7.2l7.8,2.4l0.4,3.6l-2,3.7l-5.5,1.8l-6.1,0.5L13,37.8
	L1.2,35.7l1.1-11.1l0.5-10.2C2.7,14.4,5.7,13.2,9,14z"/>
<path id="color" class="st1" d="M25.7,26c-1.5-0.2-6.2-0.5-6.9-7c-0.2-2.4-0.7-4.7-2.9-4.6c-0.2,0-0.5,0-0.7,0.1
	c-1.4,0.3-3,0.5-4.8,0.5c-3.1,0.1-5.8-0.3-5.9-0.3H4.4H4.3c-0.4,0-0.7,0.2-0.9,0.5c-0.9,1.1-1.3,5.2-1.1,16.3l25,1.9
	C29.9,33.3,29.8,26.5,25.7,26z M11.5,26.4c-1.8,0-3.2-1.4-3.2-3.2S9.7,20,11.5,20s3.2,1.4,3.2,3.2C14.7,25,13.3,26.4,11.5,26.4z"/>
<path id="outline" class="st2" d="M44.2,31.5c0-0.4,0-0.8-0.2-1.2c-0.8-2-3.2-3.5-6.4-4.4c-1.8-0.6-4.5-0.9-7.2-0.9
	c-8.5,0-9.8-1-10.3-7.1C19.7,14,18.8,12,15.9,12c-0.3,0-0.7,0-1,0.1c-0.6,0.1-1.2,0.2-1.9,0.3V0H9v12.5c-0.9,0-1.7-0.1-2.6-0.2
	c-0.5,0-0.9-0.1-1.2-0.1c-0.2,0-0.4-0.1-0.4-0.1H4.6H4.4H4.3c-0.8,0-1.5,0.3-2,0.9c-1.2,1.4-1.6,5.6-1.6,17.1
	c-0.8,3.8-1,5.6-0.3,6.6c0.8,1.2,4.3,1.8,11.3,2.5c5.4,0.4,11.7,0.8,15.8,0.8c10.4,0,16.5-2.9,16.7-7.9
	C44.2,31.9,44.2,31.7,44.2,31.5z M40.7,30.3c-0.2,0-0.3,0-0.5,0c-0.8,0-1.7,0.1-2.9,0.2c-0.7,0.1-3.3,0.3-3.5,0.3
	c-1.4,0.1-2.6,0.2-3.7,0.3l-0.3-3.3C34.7,27.6,38.9,28.7,40.7,30.3z M3.7,18.4c0.2-2.2,0.4-3.3,0.6-3.6c0.3,0,1,0.1,1.7,0.2
	c1.4,0.1,2.8,0.2,4.2,0.2c1.9,0,3.6-0.2,5.1-0.5c0.2,0,0.3-0.1,0.4-0.1c0.8,0,1.2,0.8,1.4,3.4c0.6,6.7,2.6,9,9.6,9.5l0.3,3.6
	c-1.5,0.1-2.9,0.1-4.1,0.1c-6-0.1-10-0.2-13.5-0.5c-2.2-0.2-3.9-0.4-5.1-0.7c-0.5-0.1-0.9-0.2-1.1-0.4C3.4,24.4,3.5,20.8,3.7,18.4z
	 M27.5,37.3c-4,0-10.3-0.3-15.6-0.8c-2.8-0.3-5.1-0.6-6.9-0.9c-0.9-0.2-1.6-0.3-2.1-0.5c-0.1,0-0.1,0-0.2-0.1c0-0.2,0-0.5,0-0.8
	c0-0.5,0.1-1,0.2-1.7c1.4,0.5,3.5,0.7,6.4,1c3.7,0.3,7.8,0.5,13.8,0.6c1.7,0,3.6,0,5.8-0.2c1.5-0.1,3-0.2,5-0.4
	c0.2,0,2.8-0.3,3.5-0.3c1.2-0.1,2.1-0.2,2.8-0.2c0.4,0,0.7,0,0.9,0C40.1,35.5,35.6,37.3,27.5,37.3z M11.7,27.2
	c2.2,0,3.9-1.9,3.9-4.2s-1.7-4.2-3.9-4.2S7.8,20.7,7.8,23S9.6,27.2,11.7,27.2z M12,20.9c1.1,0,2,0.9,2,2.1s-0.9,2-2,2s-2-0.9-2-2.1
	S10.9,20.9,12,20.9z"/>
</svg>
