<?xml version="1.0" encoding="utf-8"?>
<!-- Generator: Adobe Illustrator 23.0.6, SVG Export Plug-In . SVG Version: 6.00 Build 0)  -->
<svg version="1.1" id="Layer_1" xmlns="http://www.w3.org/2000/svg" xmlns:xlink="http://www.w3.org/1999/xlink" x="0px" y="0px"
	 viewBox="0 0 37.2 37.6" style="enable-background:new 0 0 37.2 37.6;" xml:space="preserve">
<style type="text/css">
	.st0{fill:#888888;}
	.st1{fill-rule:evenodd;clip-rule:evenodd;fill:#BDBDBD;}
	.st2{fill:#040B1E;}
</style>
<path id="color2" class="st0" d="M3.9,33.3c1.8,0.2,3.9,0.5,6,0.7c3.2,0.3,6.3,0.6,9.3,0.8c7.6,0.5,13.2,0.2,15.5-0.7l0-1.3
	c-0.1,0-0.2,0-0.3,0c-1.3-0.1-2.7-0.2-4.2-0.3c-4.4-0.3-8.7-0.7-12.8-1.1C11,30.5,5.9,29.8,2.7,29l0.1,4.2
	C3.1,33.2,3.5,33.3,3.9,33.3z"/>
<path id="color1" class="st1" d="M17.1,13.1c2.2-0.2,6.1,6.7,7.4,7.1c1.3,0.3,3.1,1.2,10.7,3.3c0.2,0.1,0.3,0.2,0.3,0.4
	c0,0.7,0.1,5.7,0.1,6.7c0,1.4-33.6-1.7-33.9-3.2C1.4,26,2.3,14.2,2.7,13C2.7,13,9.7,13.9,17.1,13.1z"/>
<path id="outline" class="st2" d="M7.7,12.8V0h4v12.9c1.7,0,3.4-0.1,5.1-0.3c1.4-0.1,2.7,0.8,4.4,2.7c0.3,0.4,0.7,0.7,1,1.2
	c0.2,0.3,1.1,1.3,1,1.2c0.4,0.5,0.6,0.8,0.9,1c0.3,0.3,0.5,0.5,0.6,0.7c0.1,0.1,0.1,0.1,0,0.1c-0.2,0,5.7,1.9,10.9,3.3
	c0.7,0.2,1.3,0.9,1.4,1.7c0,0.6,0.1,5.6,0.2,6.6c0,0.1,0,0.1,0,0.2c0,0.1,0,0.1,0,0.2l0,3.3c0,0.5-0.2,0.9-0.6,1.1
	c-2.4,1.6-8.5,1.9-17.6,1.4c-2.9-0.2-6.1-0.4-9.3-0.7c-2.1-0.2-4.1-0.4-6-0.6c-0.6-0.1-1.2-0.1-1.7-0.2c-0.3,0-0.5-0.1-0.6-0.1
	c-0.7-0.1-1.2-0.6-1.2-1.3L0,27.7c0-0.1,0-0.2,0-0.3c-0.1-3.2,0.6-12.7,1.1-14.1c0.2-0.6,0.8-1,1.5-0.9c0.1,0,0.3,0,0.6,0.1
	c0.5,0.1,1.1,0.1,1.7,0.2C5.8,12.7,6.7,12.8,7.7,12.8z M2.7,26.6c3,0.7,8.2,1.4,14.9,2.1c4,0.4,8.3,0.7,12.6,1
	c1.5,0.1,2.9,0.2,4.1,0.3c0,0,0.1,0,0.1,0c0-1.4-0.1-3.6-0.1-4.7c-5.2-1.4-10.5-3.1-10.2-3.1c-0.7-0.2-1.2-0.6-2.1-1.6
	c-0.3-0.3-0.5-0.6-0.9-1.1c0.1,0.1-0.8-0.9-1-1.2c-0.4-0.4-0.7-0.8-1-1.1c-0.6-0.7-1.1-1.2-1.5-1.5c-0.3-0.3-0.5-0.3-0.5-0.3
	c-4.1,0.4-8.4,0.4-12.4,0.1c-0.4,0-0.8-0.1-1.2-0.1C3.2,17.8,2.7,24.1,2.7,26.6z M2.8,29.9l0.1,3.2c0.4,0,0.7,0.1,1.2,0.1
	c1.8,0.2,3.8,0.4,5.9,0.6c3.2,0.3,6.3,0.5,9.2,0.7c7.5,0.4,13.1,0.2,15.3-0.7l0-1.2c0,0,0,0,0,0c-1,0-2.3,0-4,0
	c-3.1-0.1-7.4-0.4-11.8-0.8c-4.4-0.4-8.7-0.9-11.9-1.4C5,30.3,3.7,30.1,2.8,29.9z"/>
</svg>
