<?xml version="1.0" encoding="utf-8"?>
<!-- Generator: Adobe Illustrator 23.0.6, SVG Export Plug-In . SVG Version: 6.00 Build 0)  -->
<svg version="1.1" id="Layer_1" xmlns="http://www.w3.org/2000/svg" xmlns:xlink="http://www.w3.org/1999/xlink" x="0px" y="0px"
	 viewBox="0 0 40 41" style="enable-background:new 0 0 40 41;" xml:space="preserve">
<style type="text/css">
	.st0{fill-rule:evenodd;clip-rule:evenodd;fill:#FFFFFF;}
	.st1{fill-rule:evenodd;clip-rule:evenodd;fill:#BDBDBD;}
	.st2{fill:#040B1E;}
</style>
<polygon id="white" class="st0" points="3.8,15.3 14.6,13.6 15.8,15.9 17.2,22.4 34.8,25.3 38,27.8 38.6,35.4 37.7,37.6 33.2,39 
	20,40.2 2,38.9 1.1,37.9 2.3,19.4 "/>
<path id="color" class="st1" d="M17.3,23.7c-0.4-0.1-0.7-0.1-0.7-0.1c-4.8,2.6-14.1,1-14.1,1s-0.1,4.6-0.1,5.3s6.7,0.5,8.7,1.1
	s0.9,3.9,1.3,4.2c0.4,0.3,9.5,0.3,9.7,0.3s3.1-9.1,3.1-10.7c3.8,0.5,8.3,1.4,11.3,2.8c1.4,0.7,2.2,3.6,2.1,6.3
	c-0.2,2.7-24.7,1.8-36.9,1.8c0,0,0.1-15.7,2-19.3c0,0,7.3-0.7,10.1-1.6C16.4,14.1,17.2,21.8,17.3,23.7z"/>
<path id="outline" class="st2" d="M40,35.8c0,0,0,0,0-0.2c0-0.7-0.1-1.5-0.1-2.2s-0.1-1.3-0.1-1.7c-0.1-3-1.1-5.7-2.9-6.5
	c-2.1-1-4.9-1.7-8.1-2.4c-2.5-0.5-5.2-0.8-7.9-1.1c-0.9-0.1-1.7-0.1-2.4-0.2c0-0.1,0-0.2,0-0.3c-0.1-1.1-0.3-2.3-0.5-3.4
	c-0.8-4.1-2.1-6.4-4.6-5.7c-0.5,0.2-1.3,0.3-2.3,0.5V0H7v13.3c-0.6,0.1-1.2,0.1-1.8,0.2c-0.5,0.1-0.9,0.1-1.3,0.1
	c-0.2,0-0.4,0-0.5,0c-0.5,0-0.9,0.3-1.1,0.7c-0.9,1.6-1.4,5.1-1.8,9.9c-0.2,2.2-0.3,4.6-0.3,7c0,0.8,0,1.6-0.1,2.3
	c0,0.2,0,0.3,0,0.5L0,34.6c0,0.1,0,0.1,0,0.3s0,0.4,0,0.7c0,0.4,0,0.8,0,1.2c0,1.4,0.1,2.2,0.6,2.8c0.5,0.5,2.1,0.7,6.5,1
	c3.8,0.2,8.2,0.4,12.3,0.4c11.7-0.1,19.1-1.3,20.6-4.7l0.1-0.2L40,35.8z M26.6,25.9c0.1-0.2,0.1-0.4,0.1-0.6c0.5,0.1,1,0.2,1.5,0.3
	c3.1,0.6,5.7,1.3,7.5,2.1c0.3,0.1,0.6,0.7,0.9,1.5c0.3,0.9,0.4,1.9,0.4,2.9c0,0.1,0,0.2,0,0.4c-0.2,0.1-0.5,0.2-1,0.3
	c-1,0.2-2.4,0.4-4.1,0.6c-2.3,0.2-5.1,0.4-7.9,0.6c0.3-0.9,0.8-2.3,1.4-4.2C25.9,28.2,26.3,26.9,26.6,25.9z M17.5,24.4L17.5,24.4
	c0.2,0,0.4,0,0.8,0c0.7,0,1.6,0.1,2.9,0.3c0.2,0,0.2,0,0.4,0c1.3,0.1,2.2,0.2,2.8,0.3c0,0.1,0,0.2-0.1,0.3c-0.2,0.9-0.6,2.2-1.1,3.7
	c-0.4,1.3-0.9,2.7-1.3,3.8c-0.1,0.4-0.3,0.7-0.4,1c-1.1,0-2.7,0.1-4.2,0.1c-1.3,0-2.5,0-3.3,0c-0.2,0-0.4,0-0.6,0l0,0
	c0-0.5,0.1-0.8,0-1.2c0-1.6-0.6-2.7-2-3.2c-0.8-0.3-1.9-0.4-4.3-0.6c0,0-0.8-0.1-1-0.1c-1.2-0.1-1.9-0.2-2.4-0.3l0,0
	c0-0.4,0.1-1,0.1-1.7c0,0,0,0,0-0.1c0-0.4,0.1-0.9,0.1-1.4c0.4,0.1,0.8,0.1,1.3,0.2c2.1,0.3,4.3,0.4,6.3,0.3
	C13.9,25.6,15.9,25.2,17.5,24.4z M4.5,16.4c0.3,0,0.6-0.1,1-0.1c1.3-0.1,2.7-0.3,3.9-0.5c2-0.3,3.5-0.6,4.6-0.9
	c0.1,0.1,0.2,0.2,0.3,0.5c0.4,0.7,0.7,1.7,0.9,3.1c0.2,1,0.4,2.1,0.5,3.1c0,0.4,0.1,0.7,0.1,1c-1.2,0.5-2.6,0.7-4.3,0.8
	c-1.9,0.1-3.9,0-5.9-0.3C5,23,4.4,22.9,3.8,22.8c-0.1,0-0.2,0-0.3-0.1C3.7,19.9,4.1,17.6,4.5,16.4z M2.9,33.7c0-0.7,0-1.4,0.1-2.3
	c0-0.2,0-0.5,0-0.7c0.1,0,0.3,0.1,0.4,0.1C4,30.9,4.8,31,6,31.1c0.2,0,1,0.1,1,0.1c2.1,0.2,3.2,0.3,3.8,0.5c0.2,0.1,0.3,0.3,0.4,1
	c0,0.3,0,0.5,0,1c0,0.1,0,0.2,0,0.2c-0.4,0-0.7,0-1.1,0c-2-0.1-4.1-0.1-6.1-0.2C3.6,33.7,3.2,33.7,2.9,33.7L2.9,33.7z M19.3,38.6
	c-4,0-8.3-0.1-12.1-0.4c-1.6-0.1-3-0.2-4-0.3c-0.3,0-0.6-0.1-0.8-0.1c0-0.3,0-0.6,0-0.9c0-0.3,0-0.6,0-0.9c0.5,0,0.9,0,1.5,0.1
	c2,0.1,4,0.1,6.1,0.2c0.9,0,1.8,0,2.6,0.1c4.7,0.1,8.2,0.2,10,0.1c3.5-0.1,6.9-0.3,9.7-0.6c2.5-0.3,4.3-0.5,5.4-0.9
	c0,0.2,0,0.5,0,0.7C36.4,37.4,29.3,38.5,19.3,38.6z"/>
</svg>
