<?xml version="1.0" encoding="utf-8"?>
<!-- Generator: Adobe Illustrator 23.0.6, SVG Export Plug-In . SVG Version: 6.00 Build 0)  -->
<svg version="1.1" id="Layer_1" xmlns="http://www.w3.org/2000/svg" xmlns:xlink="http://www.w3.org/1999/xlink" x="0px" y="0px"
	 viewBox="0 0 42.8 39.9" style="enable-background:new 0 0 42.8 39.9;" xml:space="preserve">
<style type="text/css">
	.st0{fill-rule:evenodd;clip-rule:evenodd;fill:#888888;}
	.st1{fill-rule:evenodd;clip-rule:evenodd;fill:#BDBDBD;}
	.st2{fill:#040B1E;}
</style>
<path id="color2" class="st0" d="M2.7,19.8c-1.3,8-1.3,13.4,0,16.1c1.3,2.7,4.8,2.5,10.6-0.6v-8.7L2.7,19.8z"/>
<path id="color1" class="st1" d="M2.2,19.5C3,16.5,3,16,4.4,13c0,0,4.2,1,11.7,0.1c3,0.5,5.6,4.1,9.8,8.5c0,0,11.5,2.9,13,4.7
	c2,2.3,3,5.9,2,7.6c-1.9,3.3-9.4,5.2-14.9,3.5c-3.7-1.1-9.3-7.8-12.8-11.3"/>
<path id="fill" class="st2" d="M40.1,25.8c-0.6-0.7-1.8-1.3-3.6-2c-1-0.4-2.1-0.8-3.4-1.2c-1.5-0.5-3-0.9-4.6-1.4
	c-0.5-0.2-1.1-0.3-1.5-0.4c-0.1,0-0.1,0-0.2,0c-1-1.1-3.6-4-4.4-4.7c-1.6-1.7-2.9-2.7-4.2-3.4c-0.6-0.3-1.1-0.5-1.7-0.6
	c-0.1,0-0.3,0-0.4,0c-1,0.1-2,0.2-2.9,0.3V0h-4v12.4c-0.5,0-1,0-1.4-0.1c-0.8-0.1-1.5-0.1-2.1-0.2c-0.2,0-0.4-0.1-0.5-0.1
	C5,12,5,12,5,12c0,0,0,0,0,0c-0.6-0.2-1.3,0.2-1.6,0.8c-0.7,1.5-1,2.5-1.4,3.5c-0.1,0.2-0.1,0.4-0.2,0.6c-0.1,0.3-0.5,1.9-0.7,2.6
	l0,0c-1.5,5.2-1.6,12.6,0,16.6c0.9,2.3,3.5,2.9,6.9,2.4c1-0.2,2.2-0.4,3.3-0.7c0.7-0.2,1.3-0.4,1.9-0.6c0.2-0.1,0.4-0.1,0.6-0.2
	c0.1,0,0.2-0.1,0.2-0.1l0.9-0.3l0.1-6.3c0.9,1,1.8,1.9,1.9,2c0.8,0.9,1.6,1.6,2.3,2.3c2.7,2.6,4.8,4.2,6.6,4.7
	C31.7,41,39.8,39,42.2,35C43.5,32.8,42.4,28.6,40.1,25.8z M12.2,34.6c-0.5,0.2-1,0.3-1.6,0.5c-1,0.3-2,0.5-2.9,0.6
	c-2.3,0.3-3.7,0-4-0.7c-1.2-3-1.2-8.8-0.3-13.3c0.1,0,0.2,0.1,0.3,0.1c1.3,0.6,2.6,1.2,3.8,1.9c2.3,1.3,3.9,2.5,4.7,3.6
	c0,0,0,0,0,0.1L12.2,34.6z M39.8,33.7c-1.6,2.7-8.5,4.4-13.3,2.9c-1.3-0.4-3.2-1.8-5.5-4.1c-0.7-0.7-1.4-1.4-2.2-2.2
	c-0.2-0.2-3.7-3.9-4.5-4.7l0,0c-1.1-1.4-2.9-2.8-5.4-4.1c-1.3-0.7-2.7-1.4-4.1-2c-0.3-0.1-0.5-0.2-0.7-0.3c0.2-0.6,0.3-1.3,0.4-1.4
	c0.1-0.2,0.1-0.4,0.2-0.5c0.2-0.7,0.4-1.3,0.8-2.2c0.6,0.1,1.3,0.2,2.1,0.2c2.5,0.2,5.4,0.1,8.7-0.3c0.3,0.1,0.5,0.2,0.8,0.3
	c1,0.5,2,1.3,3.4,2.8c0.8,0.8,3.9,4.3,4.6,5c0.2,0.2,0.4,0.3,0.7,0.4c0.1,0,0.3,0.1,0.6,0.1c0.4,0.1,0.9,0.3,1.5,0.4
	c1.5,0.4,3,0.9,4.5,1.3c1.2,0.4,2.3,0.8,3.3,1.1c1.4,0.5,2.3,1,2.5,1.3C39.7,29.5,40.5,32.6,39.8,33.7z"/>
</svg>
