<?xml version="1.0" encoding="utf-8"?>
<!-- Generator: Adobe Illustrator 23.0.6, SVG Export Plug-In . SVG Version: 6.00 Build 0)  -->
<svg version="1.1" id="Layer_1" xmlns="http://www.w3.org/2000/svg" xmlns:xlink="http://www.w3.org/1999/xlink" x="0px" y="0px"
	 viewBox="0 0 49 46.2" style="enable-background:new 0 0 49 46.2;" xml:space="preserve">
<style type="text/css">
	.st0{fill-rule:evenodd;clip-rule:evenodd;fill:#FFFFFF;}
	.st1{fill:#040B1E;}
</style>
<path id="fill" class="st0" d="M47.4,25.1c-1,11.9-12.1,20.6-24.8,19.5S0.5,33,1.6,21.1C2.6,9.2,13.7,0.5,26.4,1.6
	S48.4,13.3,47.4,25.1"/>
<path id="stroke" class="st1" d="M24.7,46.2c-0.7,0-1.5,0-2.2-0.1c-6.7-0.6-13-3.8-17.2-8.8C1.4,32.6-0.5,26.8,0.1,21
	C0.6,15.1,3.4,9.7,8,5.8c5-4.2,11.7-6.3,18.5-5.7C39.9,1.3,50,12.5,48.9,25.2c-0.5,5.9-3.3,11.3-7.9,15.2
	C36.5,44.1,30.7,46.2,24.7,46.2z M24.3,3C19,3,13.9,4.8,10,8.1c-4,3.4-6.5,8-6.9,13.1c-0.5,5.1,1.1,10.1,4.5,14.2
	c3.7,4.4,9.2,7.2,15.1,7.7c6,0.5,11.9-1.3,16.3-5c4-3.4,6.5-8,6.9-13.1v0c0.9-11-7.9-20.9-19.6-21.9C25.6,3,24.9,3,24.3,3z"/>
</svg>
