<?xml version="1.0" encoding="utf-8"?>
<!-- Generator: Adobe Illustrator 23.0.6, SVG Export Plug-In . SVG Version: 6.00 Build 0)  -->
<svg version="1.1" id="Layer_1" xmlns="http://www.w3.org/2000/svg" xmlns:xlink="http://www.w3.org/1999/xlink" x="0px" y="0px"
	 viewBox="0 0 64.9 51" style="enable-background:new 0 0 64.9 51;" xml:space="preserve">
<style type="text/css">
	.st0{fill-rule:evenodd;clip-rule:evenodd;fill:#FFFFFF;}
	.st1{fill:#040B1E;}
</style>
<path id="fill" class="st0" d="M18.4,45c-1.6,2.8-3.5,4.5-5.8,4.5c-1.7,0-2.9-1-3.3-2.6c-0.1-0.4-0.1-0.7-0.1-1.1
	C9,45.9,8.7,46,8.5,46.1c-1,0.4-2.1,0.2-3-0.4c-2-1.5-1.4-4.3,0.7-8.4c0.3-0.6,0.7-1.3,1-1.9l0,0C6,35.5,4.9,35.1,4,34.3
	C1.7,32,3.5,29,7.1,25.9c0.6-0.5,1.3-1,1.9-1.5c-0.1,0-0.3-0.1-0.4-0.1c-3.4-0.8-5.8-2.2-6.8-4.5c-1.3-3.3,1.9-5.7,6.2-6.2
	c3.1-0.4,6.2,0.2,8.4,1.8c0-0.3-0.1-0.7-0.1-1.1c-0.4-3.5,0.9-7,3.1-9.8c1-1.2,2-2.1,3-2.6c1.4-0.7,2.9-0.5,3.6,0.9
	c0.7,1.5,0.5,5-0.5,11.1c0.9-1.1,1.7-2.1,2.6-3.2C29.6,9,31,7.5,32.3,6.3c3.5-3.3,6.5-4.9,9-4.3c3.5,0.9,4.7,3.4,3.6,6.4
	c-0.1,0.2-0.1,0.3-0.2,0.5c0.9-0.3,1.8-0.5,2.7-0.8c2.5-0.7,4.5-1,6-1.1c2.4,0,4.1,0.9,3.9,3.1s-2,3.7-5,5c0.6,0,1.2,0.1,1.8,0.2
	c3.6,0.6,6.5,1.9,8.5,4.5c1.3,1.6,1.1,3.4-0.6,4.6c-1.2,0.8-3.2,1.4-6.1,1.7c-5.5,0.7-14.3,0.7-26.5,0.2c-3.2,0-4.6,0.6-5,1.7
	c-0.3,1-0.2,2.2,0.6,5.2c0.1,0.2,0.1,0.3,0.1,0.5c1.3,5.2,1.1,7.9-2.2,9.8C20.9,44.7,19.5,45.3,18.4,45z"/>
<path id="outline" class="st1" d="M12.6,51c-2.2,0-3.9-1.2-4.6-3.2c-1.1,0.2-2.3-0.1-3.3-0.8c-3.3-2.4-1.7-6.6,0.2-10.3c0,0,0,0,0,0
	c-0.7-0.3-1.3-0.6-1.9-1.1c-1.1-1.1-1.6-2.3-1.5-3.6C1.5,29.8,3,27.5,5.8,25c-2.7-1-4.5-2.6-5.4-4.6c-0.6-1.6-0.5-3.2,0.3-4.5
	c1.2-2,3.8-3.4,7.1-3.7c2.4-0.3,4.8-0.1,6.9,0.7c0-3.2,1.3-6.4,3.5-9.3c1.2-1.5,2.4-2.4,3.5-3c1-0.5,2.1-0.7,3-0.5
	c1.1,0.2,2,1,2.6,2c0.6,1.3,0.7,3.3,0.4,6.7c1.4-1.6,2.5-2.7,3.6-3.7c4.1-3.9,7.4-5.4,10.4-4.7c2.7,0.7,4,2.1,4.5,3.2
	c0.5,0.9,0.7,1.9,0.6,3c0,0,0.1,0,0.1,0c2.3-0.7,4.5-1,6.4-1.2c0,0,0,0,0,0c2.1,0,3.6,0.5,4.5,1.6c0.5,0.6,1.1,1.6,1,3.2
	c-0.2,1.7-1.1,3.1-2.2,4.1c3.2,0.9,5.5,2.4,7.2,4.6c0.9,1.1,1.3,2.4,1.1,3.6c-0.2,1.2-0.9,2.3-2,3.1c-1.5,1-3.8,1.7-6.8,2
	c-5.3,0.7-13.8,0.7-26.7,0.2c-3.2,0-3.5,0.7-3.5,0.7c-0.2,0.5-0.1,1.4,0.6,4.2c0.1,0.3,0.2,0.6,0.2,0.8c1.3,5.3,1.2,8.9-2.9,11.3
	c-1.7,1-3.1,1.7-4.4,1.8C17.3,49.5,15.1,51,12.6,51z M10.7,43.4v2.4c0,0.4,0,0.5,0.1,0.7c0.2,1,0.9,1.5,1.8,1.5
	c1.6,0,3.1-1.3,4.5-3.7l0.6-1l1.1,0.3c0.8,0.2,2.7-1,3.3-1.3c2.2-1.3,2.9-2.7,1.5-8.2l-0.1-0.5c-0.9-3.2-1-4.7-0.6-6
	c0.9-2.5,3.9-2.8,6.4-2.8c12.8,0.5,21.2,0.5,26.3-0.2c3.2-0.3,4.7-1,5.5-1.5c0.3-0.2,0.7-0.6,0.8-1.1c0.1-0.5-0.2-1-0.5-1.3
	c-1.6-2.1-4-3.4-7.6-4c-0.6-0.1-1.1-0.2-1.6-0.2l-0.6-2.9c3.5-1.5,4-2.8,4.1-3.8c0.1-0.6-0.1-0.8-0.2-0.9c-0.3-0.4-1.2-0.6-2.2-0.6
	c-1.6,0.1-3.5,0.5-5.6,1c-0.4,0.1-0.9,0.3-1.4,0.4c-0.4,0.1-0.9,0.2-1.3,0.4l-3.4,1.1l1.6-3.2c0.1-0.2,0.1-0.3,0.2-0.4
	c0.3-0.7,0.5-1.8,0-2.7c-0.5-1-1.7-1.5-2.6-1.7c-1.8-0.4-4.4,0.9-7.6,3.9c-1.1,1.1-2.4,2.4-4.1,4.3c-0.4,0.5-0.8,1-1.3,1.6
	c-0.4,0.5-0.9,1.1-1.3,1.6l-3.5,4.3l0.9-5.5c0.9-5.7,1.1-9.1,0.6-10.2c-0.3-0.6-1-0.5-1.6-0.2c-0.8,0.4-1.6,1.1-2.5,2.2
	c-2.1,2.7-3.1,5.8-2.8,8.7l0,0.2c0,0.1,0,0.3,0,0.4c0,0.2,0.1,0.5,0.1,0.7v2.9l-2.4-1.7c-1.8-1.3-4.5-1.9-7.3-1.5
	c-2.3,0.3-4.2,1.2-4.9,2.3c-0.3,0.6-0.4,1.2-0.1,1.9c0.7,1.6,2.6,2.8,5.7,3.6c0.1,0,0.2,0.1,0.3,0.1h4L10,25.5
	c-0.3,0.3-0.7,0.5-1,0.8c-0.3,0.2-0.6,0.5-0.9,0.7c-3.1,2.6-3.6,4.2-3.6,4.9c0,0.3,0,0.8,0.6,1.3c0.5,0.5,1.3,0.7,2,0.7l2.7-0.2
	l-1.2,2.4c-0.2,0.3-0.3,0.6-0.5,1c-0.2,0.3-0.3,0.6-0.5,0.9c-2.4,4.7-1.9,6-1.1,6.5c0.5,0.3,1,0.4,1.5,0.2c0.1-0.1,0.3-0.1,0.4-0.2
	c0.1,0,0.2-0.1,0.2-0.1L10.7,43.4z"/>
</svg>
