<?xml version="1.0" encoding="utf-8"?>
<!-- Generator: Adobe Illustrator 23.0.6, SVG Export Plug-In . SVG Version: 6.00 Build 0)  -->
<svg version="1.1" id="Layer_1" xmlns="http://www.w3.org/2000/svg" xmlns:xlink="http://www.w3.org/1999/xlink" x="0px" y="0px"
	 viewBox="0 0 65.4 54.9" style="enable-background:new 0 0 65.4 54.9;" xml:space="preserve">
<style type="text/css">
	.st0{fill-rule:evenodd;clip-rule:evenodd;fill:#FFFFFF;}
	.st1{fill:#040B1E;}
</style>
<path id="fill" class="st0" d="M51.6,17.5c0.5,0,1.3,0,1.7,0.1c1,0,1.8,0.1,2.7,0.1c3.5,0.2,5.7,0.6,6.9,1.5s1.3,2.4,0.2,3.6
	c-0.7,0.8-2.1,1.6-4.1,2.5c-0.7,0.3-1.2,0.6-1.5,0.9c-0.1,0.1-0.2,0.2-0.2,0.2c0,0.1,0.2,0.5,0.7,1.1c-0.1-0.1,0.4,0.5,0.6,0.7
	c0.2,0.3,0.4,0.5,0.6,0.8c0.5,1,0.4,2.1-0.6,2.9c-1.2,0.8-3.7,1.1-9,1.1c-5.7,0.1-10.2-0.3-14.7-1c-0.7-0.1-1.4-0.2-2.2-0.4
	c-0.1,0-1.5-0.3-1.8-0.3c-1.3-0.2-2-0.3-2.7-0.3c-1.2,0-1.9,0.2-2.6,1c-0.1,0.1-0.3,0.3-0.4,0.5c-2.1,2.8-2.7,7.8-1.8,15l0.1,0.8
	l-0.6,0.5c-3.8,3.1-6.8,4.6-9,4.6c-2.8,0-4.2-2.2-4.2-5.8c0-1.9-0.9-2.7-3-3.3c-0.3-0.1-0.6-0.1-1-0.2c-0.2,0-0.9-0.2-1-0.2
	c-0.9-0.2-1.4-0.3-1.9-0.6c-0.9-0.5-1.5-1.3-1.3-2.4c0.2-1.3,1.6-2.8,4.8-5.3c2.3-1.8,3.4-3.5,3.5-5.3c0.2-3.2-0.7-5-2.8-7.1
	C6.8,23,5.8,22,5.5,21.7c-1.6-1.4-2.4-2.7-2.4-4.5c0-4.1,5.3-4.5,15.6-1.4c1.1,0.3,1.8,0.4,2.1,0.3c0,0,0,0,0-0.1
	c0.1-0.8-0.2-2-1.3-5c0-0.1,0-0.1-0.1-0.2C18.4,8,18,6.7,18,5.3c0-2.3,1.3-3.8,3.8-3.8c3.4,0,5.7,1.3,9.2,4.4
	c0.1,0.1,0.3,0.2,0.5,0.4s0.3,0.3,0.5,0.4c3.7,3.3,5.8,4.5,9.1,4.5c1.9,0,3.6-0.4,5.7-1.1c0.1,0,2.5-0.9,3-1
	c1.4-0.4,2.4-0.3,3.2,0.8C53.8,11.1,53.4,12.9,51.6,17.5z"/>
<path id="outline" class="st1" d="M13.9,54.9c-3.6,0-5.7-2.7-5.7-7.3c0-0.9-0.1-1.3-1.9-1.9c-0.1,0-0.2-0.1-0.3-0.1
	c-0.2,0-0.3-0.1-0.5-0.1c-0.2,0-0.4-0.1-0.8-0.2c-0.1,0-0.1,0-0.1,0l-0.3-0.1c-0.9-0.2-1.5-0.3-2.2-0.7c-1.5-0.9-2.3-2.3-2-4
	c0.3-1.7,1.7-3.3,5.4-6.2c1.9-1.5,2.8-2.8,2.9-4.2c0.2-2.6-0.4-4-2.4-6l-1.5-1.5c-2-1.7-2.8-3.4-2.8-5.6c0-2,1-3.1,1.8-3.7
	c2.5-1.9,7.5-1.6,15.7,0.9c-0.2-0.8-0.6-1.7-0.9-2.7l0,0L18,11.3c-1-2.9-1.5-4.3-1.5-6c0-3.2,2.1-5.3,5.3-5.3c4,0,6.7,1.7,10.2,4.8
	c0,0,0,0,0,0c0.2,0.1,0.4,0.3,0.6,0.5c0.1,0.1,0.1,0.1,0.1,0.1L33,5.6c3.6,3.2,5.4,4.1,8.1,4.1c1.8,0,3.4-0.4,5.2-1l0.3-0.1
	c0.2-0.1,0.4-0.1,0.7-0.2c1.2-0.4,1.8-0.6,2.2-0.7c0.8-0.2,3.2-0.9,4.8,1.4c1.1,1.6,0.8,3.5-0.5,7.1c0.4,0,0.7,0,1.1,0
	c0.4,0,0.8,0,1.2,0c4.2,0.2,6.4,0.7,7.8,1.8c0.9,0.7,1.5,1.6,1.6,2.7c0.1,1.1-0.3,2.2-1.1,3.1c-0.8,0.9-2.2,1.8-4.6,2.9
	c-0.1,0-0.2,0.1-0.3,0.1c0.1,0.1,0.2,0.3,0.3,0.4l0.2,0.2c0.1,0.1,0.1,0.2,0.2,0.3c0.1,0.2,0.3,0.3,0.4,0.5l0.1,0.2
	c0.9,1.7,0.5,3.6-1,4.7l-0.1,0.1c-1.5,1-4.1,1.4-9.8,1.4c-5.2,0.1-9.8-0.2-14.9-1c-0.7-0.1-1.4-0.2-2.2-0.4c-0.1,0-0.3,0-0.5-0.1
	c-0.4-0.1-0.8-0.2-1.1-0.2l-0.2,0c-1.3-0.2-1.9-0.3-2.5-0.3c-1,0-1.2,0.2-1.5,0.5l-0.1,0.1c0,0-0.1,0.1-0.1,0.2l-0.1,0.2
	c-1.8,2.5-2.4,7.1-1.5,13.9l0.2,1.6l-1.2,1C19.8,53.3,16.6,54.9,13.9,54.9z M5.8,42.6l0.3,0c0.1,0,0.2,0,0.4,0.1
	c0.3,0,0.5,0.1,0.8,0.2c2,0.6,4,1.6,4,4.7c0,4.3,2,4.3,2.7,4.3c1.3,0,3.7-0.7,8-4.2c-0.9-7.6-0.3-12.8,2-16c0.2-0.3,0.4-0.5,0.6-0.7
	c1.1-1.2,2.3-1.5,3.7-1.5c0.8,0,1.6,0.1,2.8,0.3c0.3,0,0.7,0.1,1.4,0.2c0.1,0,0.3,0,0.3,0.1l0.3,0c0.7,0.2,1.4,0.3,2,0.4
	c5,0.8,9.4,1.1,14.5,1c3.2,0,7-0.1,8.1-0.8c0.2-0.2,0.4-0.4,0.2-0.9c-0.1-0.1-0.1-0.1-0.2-0.2c-0.1-0.1-0.2-0.2-0.3-0.4
	c-0.3-0.3-0.5-0.6-0.7-0.8c-0.9-1.2-0.9-1.7-0.9-1.9v-0.6l0.6-0.6c0.4-0.4,1.1-0.8,2-1.2c0.7-0.3,2.8-1.3,3.6-2.1
	c0.3-0.3,0.4-0.6,0.4-0.9c0-0.2-0.1-0.4-0.4-0.6c-1.1-0.8-4-1.1-6.1-1.2c-0.4,0-0.8,0-1.3,0c-0.4,0-0.9,0-1.3,0l-0.4,0
	C52.7,19,51.9,19,51.6,19h-2.2l0.8-2c1.3-3.2,2-5.5,1.5-6.2c-0.2-0.3-0.4-0.5-1.5-0.2l-0.1,0c-0.2,0.1-1.3,0.4-1.8,0.6
	c-0.6,0.2-0.9,0.3-1.1,0.4c-1.8,0.6-3.8,1.1-6.1,1.1c-3.9,0-6.3-1.5-10-4.8c-0.3-0.2-0.5-0.4-0.7-0.6c0,0-0.1-0.1-0.1-0.1
	C30.2,7.1,30.1,7.1,30,7c-3.4-3-5.3-4-8.1-4c-1.6,0-2.3,0.7-2.3,2.3c0,1.1,0.3,2.2,1.2,4.8c0.1,0.2,0.2,0.4,0.2,0.6
	c1.1,3,1.4,4.4,1.3,5.4v1.1l-1,0.3c-0.6,0.2-1.5,0.1-3-0.3c-9.3-2.8-12.2-2.1-13.2-1.4c-0.3,0.2-0.6,0.5-0.6,1.3
	c0,1.3,0.5,2.2,1.9,3.4l1.6,1.6c2.2,2.2,3.5,4.3,3.2,8.3c-0.1,2.2-1.5,4.3-4.1,6.4C6.2,37.6,3.2,40,3,41.1c0,0.2-0.1,0.5,0.5,0.9
	c0.3,0.2,0.6,0.2,1.3,0.4l0.1,0c0.1,0,0.3,0.1,0.5,0.1C5.6,42.5,5.7,42.6,5.8,42.6z M32.1,4.8L32.1,4.8L32.1,4.8z"/>
</svg>
