<?xml version="1.0" encoding="utf-8"?>
<!-- Generator: Adobe Illustrator 23.0.6, SVG Export Plug-In . SVG Version: 6.00 Build 0)  -->
<svg version="1.1" id="Layer_1" xmlns="http://www.w3.org/2000/svg" xmlns:xlink="http://www.w3.org/1999/xlink" x="0px" y="0px"
	 viewBox="0 0 69.9 47.1" style="enable-background:new 0 0 69.9 47.1;" xml:space="preserve">
<style type="text/css">
	.st0{fill:#FFFFFF;}
	.st1{fill:#040B1E;}
</style>
<path id="fill" class="st0" d="M67.8,22.2L67.8,22.2C64.2,12.6,57.4,8.3,48.7,7.9c-3-0.2-6,0.2-8.9,0.9c-0.7,0.1-1.4,0.3-1.9,0.5
	c-0.4-0.2-0.8-0.3-1.1-0.4C36.5,8,36,7.1,35.4,6.2c-2.7-4-8.2-5.6-13.6-4.1c-6.7,1.8-10.9,7.5-11.5,15.1c-0.2,4.4-1.6,7.2-3.7,8.9
	c-0.8,0.6-1.5,1-2.3,1.2c-0.4,0.1-0.8,0.2-1,0.2c-0.9,0-1.7,0.8-1.8,1.7c-0.1,1,0.4,1.9,1.3,2.2c3.8,1.4,10.7,1,15.7-0.3
	c0.1,2.3,1.2,4.9,3,7.8c1.6,2.6,4,5.6,4.8,6.3l0.1,0.1l0.1,0.1c1.4,0.7,2.6,0.1,3.1-1.3c0.2-0.6,0.3-1.4,0.4-2.9
	c0.4-4.8,0.6-6.4,1.5-9c1-3.1,2.6-5.6,5.1-7.5c3.9,2,9.6,3.2,13.6,3.2c2.4,0,4.1-0.6,4.8-2.2c4,1.8,9.6,3,11.7,2.1
	C68.6,27,68.7,25.3,67.8,22.2z M24.6,16.9c0,0.2,0,0.4-0.1,0.8c0,0.3-0.1,0.5-0.1,0.7s-0.1,0.5-0.1,0.7l-1.5-0.3l-1.1-1.1
	c1.1-1.1,2.2-2,3.3-2.7C24.9,15.5,24.8,16.1,24.6,16.9z"/>
<path id="outline" class="st1" d="M69.3,21.9v-0.2l-0.1-0.3C65.6,11.9,58.7,6.8,48.8,6.4c-2.9-0.2-5.9,0.1-9.3,0.9
	C39,7.4,38.4,7.5,38,7.6c0,0,0,0-0.1,0c-0.3-0.7-0.7-1.5-1.2-2.3c-3-4.5-9.2-6.4-15.2-4.7C14.2,2.6,9.5,8.7,8.8,17.1
	c-0.2,3.6-1.2,6.2-3.1,7.8c-0.7,0.5-1.2,0.8-1.8,0.9c-0.3,0.1-0.5,0.1-0.6,0.2C1.7,26,0.2,27.3,0,29c-0.2,1.7,0.8,3.3,2.3,3.8
	c3.8,1.4,10.1,1.1,14.9,0.1c0.4,2,1.4,4.2,3,6.8c1.6,2.6,4,5.7,5,6.6l0.3,0.3l0.2,0.1c0.6,0.3,1.2,0.4,1.8,0.4
	c0.4,0,0.9-0.1,1.2-0.2c1-0.4,1.7-1.2,2.1-2.4c0.3-0.8,0.4-1.8,0.5-3.2c0.4-4.8,0.6-6.2,1.4-8.7c0.8-2.6,2.1-4.6,3.9-6.2
	c3.8,1.7,9.2,2.9,13.4,2.9c2.5,0,4.3-0.6,5.4-1.8c3.7,1.4,9.1,2.7,11.7,1.6C70.8,27.7,69.9,23.9,69.3,21.9z M27.5,15.4
	c1.2-1.5,5.9-6.7,9.7-4.8c0.1,0,0.1,0.1,0.1,0.1c-0.3,0.5-1.4,1.6-3.9,2.9C30.8,14.9,28.5,15.4,27.5,15.4z M66.1,26.4
	c-1.4,0.6-6.3-0.2-10.5-2.1l-1.4-0.6l-0.6,1.4c-0.2,0.4-0.6,1.3-3.4,1.3c-4.1,0-9.5-1.3-12.9-3l-0.8-0.4l-0.8,0.6
	c-2.6,2-4.5,4.7-5.6,8.2c-1,2.8-1.2,4.6-1.6,9.4c-0.1,1.4-0.2,2.1-0.3,2.5c-0.1,0.3-0.3,0.5-0.4,0.6c-0.1,0-0.3,0-0.4,0L27.3,44
	c-0.6-0.6-2.9-3.4-4.5-6C21,35.2,20.1,32.9,20,31l-0.1-1.9l-1.8,0.5C12.9,31,6.5,31.1,3.3,29.9C3,29.9,3,29.5,3,29.3
	C3,29.1,3.2,29,3.3,29c0.4,0,0.8-0.1,1.4-0.2c0.9-0.2,1.8-0.7,2.9-1.5c2.6-2.1,4-5.5,4.3-9.9c0.6-7,4.4-12.2,10.4-13.8
	c4.8-1.3,9.6,0.1,12,3.5c0.1,0.1,0.1,0.2,0.2,0.3c-3.6,0.5-6.7,3.5-8.4,5.3l-1.8,1.1c-1.2,0.8-2.4,1.7-3.6,2.9l-1.1,1.1l2.5,2.5
	l1.9,0.4l1.8,0.4v-1.8l0-0.1c0-0.2,0.1-0.5,0.1-0.6c0,0,0,0.1,0,0.1c0-0.1,0-0.2,0.1-0.3c0.4,0.2,1,0.3,1.6,0.3
	c4.1,0,11.2-3.5,12.6-6.5c0.3-0.6,0.3-1.1,0.3-1.7c3-0.7,5.7-1,8.2-0.8c8.5,0.4,14.5,4.8,17.7,13l0.1,0.2
	C67.3,25.9,66.7,26.1,66.1,26.4z"/>
</svg>
