<svg xmlns="http://www.w3.org/2000/svg" viewBox="0 0 11.03 19.85"><defs><style>.cls-1,.cls-2{fill:#6ac93d;}.cls-1{stroke:#26890e;stroke-miterlimit:10;stroke-width:0.55px;}</style></defs><title>AvatarAsset 3</title><g id="Layer_2" data-name="Layer 2"><g id="Layer_1-2" data-name="Layer 1"><polygon class="cls-1" points="0.78 8.76 0.78 14.28 4 14.28 4 19.57 7.3 19.57 7.3 11.9 10.75 11.9 10.75 6 8.37 6 8.37 9.91 6.92 9.91 6.92 0.78 3.92 0.78 3.92 12.28 2.54 12.28 2.54 8.83 0.78 8.76"/><polygon class="cls-2" points="5.07 18.7 4.28 19.15 4.28 19.85 7.02 19.85 7.02 19.15 5.07 18.7"/><line class="cls-1" x1="3.14" y1="5.27" x2="3.92" y2="5.27"/><line class="cls-1" x1="3.14" y1="7.07" x2="3.92" y2="7.07"/><line class="cls-1" y1="9.66" x2="0.78" y2="9.66"/><line class="cls-1" y1="11.42" x2="0.78" y2="11.42"/><line class="cls-1" y1="13.19" x2="0.78" y2="13.19"/><line class="cls-1" x1="3.36" y1="15.54" x2="4.14" y2="15.54"/><line class="cls-1" x1="7.22" y1="14.11" x2="8" y2="14.11"/><line class="cls-1" x1="7.22" y1="16.9" x2="8" y2="16.9"/><line class="cls-1" x1="7.22" y1="19.47" x2="8" y2="19.47"/><line class="cls-1" x1="2.17" y1="15.01" x2="2.17" y2="14.23"/><line class="cls-1" x1="1.65" y1="8.95" x2="1.65" y2="8.17"/><line class="cls-1" x1="5.41" y1="0.78" x2="5.41"/><line class="cls-1" x1="9.51" y1="6.05" x2="9.51" y2="5.27"/><line class="cls-1" x1="8.75" y1="12.66" x2="8.75" y2="11.88"/><line class="cls-1" x1="3.36" y1="17.61" x2="4.14" y2="17.61"/><line class="cls-1" x1="3.14" y1="2.97" x2="3.92" y2="2.97"/><line class="cls-1" x1="6.82" y1="1.95" x2="7.59" y2="1.95"/><line class="cls-1" x1="6.9" y1="4.18" x2="7.68" y2="4.18"/><line class="cls-1" x1="6.82" y1="6.18" x2="7.59" y2="6.18"/><line class="cls-1" x1="6.9" y1="8.17" x2="7.68" y2="8.17"/></g></g></svg>