<svg xmlns="http://www.w3.org/2000/svg" viewBox="0 0 23.01 15.65"><defs><style>.cls-1,.cls-2{fill:#fbb03b;}.cls-1,.cls-4{stroke:#f7931e;stroke-miterlimit:10;stroke-width:0.5px;}.cls-3{fill:#f7931e;}.cls-4{fill:none;}</style></defs><title>AvatarAsset 2</title><g id="Layer_2" data-name="Layer 2"><g id="Layer_1-2" data-name="Layer 1"><polyline class="cls-1" points="11.89 0.18 22.73 10.45 21.37 15.52"/><polygon class="cls-2" points="0.51 15.4 11.96 0.46 21.07 15.4 0.51 15.4"/><path class="cls-3" d="M11.93.9l8.7,14.25H1L11.93.9M12,0,0,15.65H21.52L12,0Z"/><line class="cls-4" x1="1.8" y1="13.3" x2="19.67" y2="13.3"/><line class="cls-4" x1="3.86" y1="10.75" x2="18.31" y2="10.75"/><line class="cls-4" x1="5.98" y1="8.21" x2="16.54" y2="8.21"/><line class="cls-4" x1="7.97" y1="5.66" x2="14.98" y2="5.66"/><line class="cls-4" x1="9.61" y1="3.11" x2="13.85" y2="3.11"/><line class="cls-4" x1="5.48" y1="13.3" x2="5.48" y2="15.52"/><line class="cls-4" x1="12.45" y1="13.3" x2="12.45" y2="15.52"/><line class="cls-4" x1="17.73" y1="13.3" x2="17.73" y2="15.52"/><line class="cls-4" x1="8.7" y1="13.3" x2="8.7" y2="10.75"/><line class="cls-4" x1="14.98" y1="13.3" x2="14.98" y2="10.61"/><line class="cls-4" x1="12.45" y1="10.75" x2="12.45" y2="8.21"/><line class="cls-4" x1="6.85" y1="10.61" x2="6.85" y2="8.21"/><line class="cls-4" x1="10.2" y1="8.21" x2="10.2" y2="5.66"/><line class="cls-4" x1="12.04" y1="5.66" x2="12.04" y2="3.11"/><line class="cls-4" x1="16.54" y1="8.21" x2="17.48" y2="5.48"/><line class="cls-4" x1="14.98" y1="5.66" x2="15.91" y2="3.99"/><line class="cls-4" x1="13.85" y1="3.11" x2="14.2" y2="2.38"/><line class="cls-4" x1="18.31" y1="10.75" x2="19.28" y2="7.18"/><line class="cls-4" x1="19.67" y1="13.3" x2="20.97" y2="8.78"/><line class="cls-4" x1="20.66" y1="9.84" x2="22.42" y2="11.59"/><line class="cls-4" x1="20.15" y1="11.62" x2="21.83" y2="13.8"/><line class="cls-4" x1="20.32" y1="10.61" x2="18.79" y2="8.97"/><line class="cls-4" x1="17.31" y1="6.48" x2="19" y2="8.21"/></g></g></svg>