<svg xmlns="http://www.w3.org/2000/svg" viewBox="0 0 10.37 23.07"><defs><style>.cls-1{fill:#fff;}.cls-1,.cls-2,.cls-3{stroke:#ff2b12;stroke-miterlimit:10;}.cls-1,.cls-2{stroke-width:0.45px;}.cls-2{fill:none;}.cls-3{fill:#de00f1;stroke-width:0.17px;}</style></defs><title>AvatarAsset 1</title><g id="Layer_2" data-name="Layer 2"><g id="Layer_1-2" data-name="Layer 1"><line class="cls-1" x1="4.77" y1="2.11" x2="0.82" y2="20.01"/><line class="cls-2" x1="9.1" y1="20.01" x2="4.77" y2="2.11"/><line class="cls-2" x1="1.69" y1="16.06" x2="8.17" y2="16.06"/><line class="cls-2" x1="3.13" y1="9.55" x2="6.56" y2="9.55"/><line class="cls-2" x1="8.17" y1="16.06" x2="3.13" y2="9.55"/><line class="cls-2" x1="1.69" y1="16.06" x2="6.56" y2="9.55"/><line class="cls-2" x1="3.94" y1="5.87" x2="5.65" y2="5.87"/><line class="cls-2" x1="3.13" y1="9.55" x2="5.65" y2="5.87"/><line class="cls-2" x1="6.56" y1="9.55" x2="3.94" y2="5.87"/><line class="cls-2" x1="0.82" y1="20.01" x2="8.17" y2="16.06"/><line class="cls-2" x1="9.1" y1="20.01" x2="1.69" y2="16.06"/><line class="cls-2" x1="0.22" y1="23.02" x2="1.15" y2="18.51"/><line class="cls-2" x1="9.88" y1="22.66" x2="9.1" y2="20.01"/><circle class="cls-3" cx="8.99" cy="16.06" r="1.3"/><circle class="cls-3" cx="2.32" cy="9.55" r="1.3"/><circle class="cls-3" cx="4.93" cy="1.39" r="1.3"/></g></g></svg>